<svg width="168" height="42" viewBox="0 0 168 42" fill="none" xmlns="http://www.w3.org/2000/svg">
<path d="M26.4825 8.06801L15.9933 32.5551H10.4545L0 8.06801H6.05808L13.4316 25.5588L20.909 8.06801H26.4825Z" fill="white"/>
<path d="M36.1202 28.4623C37.0895 28.4623 37.9434 28.3224 38.6819 28.0425C39.4435 27.7393 40.1474 27.2729 40.7936 26.6433L43.6669 29.7916C41.9129 31.8205 39.3512 32.835 35.9818 32.835C33.8816 32.835 32.0238 32.4269 30.4083 31.6106C28.7928 30.7711 27.5466 29.6167 26.6696 28.1475C25.7926 26.6782 25.3542 25.0108 25.3542 23.1451C25.3542 21.3027 25.7811 19.6469 26.635 18.1777C27.512 16.6852 28.7005 15.5308 30.2006 14.7145C31.7238 13.875 33.4316 13.4552 35.324 13.4552C37.1011 13.4552 38.7166 13.84 40.1705 14.6096C41.6244 15.3559 42.7784 16.4519 43.6323 17.8978C44.5092 19.3204 44.9477 21.0112 44.9477 22.9702L31.1699 25.6638C31.5623 26.5966 32.1738 27.2962 33.0047 27.7627C33.8586 28.2291 34.8971 28.4623 36.1202 28.4623ZM35.324 17.583C33.9624 17.583 32.8546 18.0261 32.0007 18.9123C31.1468 19.7985 30.6968 21.0229 30.6507 22.5854L39.7205 20.8013C39.4666 19.8218 38.9473 19.0406 38.1627 18.4576C37.378 17.8745 36.4318 17.583 35.324 17.583Z" fill="white"/>
<path d="M53.7357 16.2187C54.3819 15.3092 55.2474 14.6212 56.3321 14.1548C57.4398 13.6884 58.7091 13.4552 60.14 13.4552V18.4925C59.54 18.4459 59.1361 18.4226 58.9284 18.4226C57.3821 18.4226 56.1705 18.8657 55.2935 19.7519C54.4166 20.6148 53.7767 21.9516 53.7767 23.7007L53.7387 32.5551H48.7362V13.735H53.7357V16.2187Z" fill="white"/>
<path d="M69.6845 32.835C68.1382 32.835 66.6266 32.6484 65.1495 32.2753C63.6725 31.8788 62.4955 31.3891 61.6185 30.8061L63.4187 26.8881C64.2495 27.4245 65.2534 27.8676 66.4304 28.2174C67.6074 28.5439 68.7613 28.7072 69.8922 28.7072C72.1769 28.7072 73.3193 28.1358 73.3193 26.9931C73.3193 26.4567 73.0077 26.0719 72.3846 25.8387C71.7615 25.6055 70.8038 25.4072 69.5114 25.244C67.9882 25.0108 66.7304 24.7426 65.7381 24.4394C64.7457 24.1362 63.8802 23.5999 63.1417 22.8303C62.4263 22.0607 62.0686 20.9646 62.0686 19.542C62.0686 18.3526 62.4032 17.3032 63.0725 16.3936C63.7648 15.4608 64.7572 14.7378 66.0496 14.2248C67.3651 13.7117 68.9113 13.4552 70.6884 13.4552C72.0038 13.4552 73.3078 13.6068 74.6001 13.9099C75.9156 14.1898 77.0003 14.5863 77.8542 15.0993L76.0541 18.9823C74.4155 18.0494 72.6269 17.583 70.6884 17.583C69.5344 17.583 68.669 17.7463 68.092 18.0728C67.5151 18.3993 67.2266 18.819 67.2266 19.3321C67.2266 19.9151 67.5382 20.3232 68.1613 20.5565C68.7844 20.7897 69.7768 21.0112 71.1384 21.2211C72.6616 21.4776 73.9078 21.7575 74.8771 22.0607C75.8464 22.3405 76.6888 22.8652 77.4042 23.6348C78.1196 24.4044 78.4773 25.4772 78.4773 26.8531C78.4773 28.0192 78.1312 29.057 77.4388 29.9665C76.7465 30.876 75.731 31.5873 74.3925 32.1004C73.077 32.5901 71.5076 32.835 69.6845 32.835Z" fill="white"/>
<path d="M91.1907 28.4623C92.1599 28.4623 93.0138 28.3224 93.7523 28.0425C94.5139 27.7393 95.2178 27.2729 95.864 26.6433L98.7373 29.7916C96.9833 31.8205 94.4216 32.835 91.0522 32.835C88.952 32.835 87.0942 32.4269 85.4787 31.6106C83.8632 30.7711 82.617 29.6167 81.74 28.1475C80.8631 26.6782 80.4246 25.0108 80.4246 23.1451C80.4246 21.3027 80.8515 19.6469 81.7054 18.1777C82.5824 16.6852 83.7709 15.5308 85.271 14.7145C86.7942 13.875 88.502 13.4552 90.3944 13.4552C92.1715 13.4552 93.787 13.84 95.2409 14.6096C96.6948 15.3559 97.8488 16.4519 98.7027 17.8978C99.5796 19.3204 100.018 21.0112 100.018 22.9702L86.2403 25.6638C86.6327 26.5966 87.2442 27.2962 88.0751 27.7627C88.929 28.2291 89.9675 28.4623 91.1907 28.4623ZM90.3944 17.583C89.0328 17.583 87.925 18.0261 87.0711 18.9123C86.2172 19.7985 85.7672 21.0229 85.7211 22.5854L94.7909 20.8013C94.537 19.8218 94.0177 19.0406 93.2331 18.4576C92.4484 17.8745 91.5022 17.583 90.3944 17.583Z" fill="white"/>
<path d="M114.657 13.4552C116.387 13.4552 117.957 13.8633 119.365 14.6795C120.795 15.4725 121.915 16.6035 122.722 18.0728C123.53 19.5187 123.934 21.2094 123.934 23.1451C123.934 25.0807 123.53 26.7832 122.722 28.2524C121.915 29.6983 120.795 30.8294 119.365 31.6456C117.957 32.4385 116.387 32.835 114.657 32.835C112.095 32.835 110.105 32.0107 108.767 30.3783V32.5551H103.764V6.59879H108.767L108.812 15.7401C110.174 14.2243 112.279 13.4552 114.657 13.4552ZM113.722 28.3574C115.107 28.3574 116.237 27.8909 117.114 26.9581C118.014 26.0019 118.464 24.7309 118.464 23.1451C118.464 21.5593 118.014 20.2999 117.114 19.3671C116.237 18.4109 115.107 17.9328 113.722 17.9328C112.337 17.9328 111.195 18.4109 110.295 19.3671C109.418 20.2999 108.979 21.5593 108.979 23.1451C108.979 24.7309 109.418 26.0019 110.295 26.9581C111.195 27.8909 112.337 28.3574 113.722 28.3574Z" fill="white"/>
<path d="M136.411 32.835C134.45 32.835 132.684 32.4269 131.115 31.6106C129.569 30.7711 128.357 29.6167 127.48 28.1475C126.603 26.6782 126.164 25.0108 126.164 23.1451C126.164 21.2794 126.603 19.6119 127.48 18.1427C128.357 16.6735 129.569 15.5308 131.115 14.7145C132.684 13.875 134.45 13.4552 136.411 13.4552C138.373 13.4552 140.127 13.875 141.673 14.7145C143.219 15.5308 144.431 16.6735 145.308 18.1427C146.185 19.6119 146.623 21.2794 146.623 23.1451C146.623 25.0108 146.185 26.6782 145.308 28.1475C144.431 29.6167 143.219 30.7711 141.673 31.6106C140.127 32.4269 138.373 32.835 136.411 32.835ZM136.411 28.3574C137.796 28.3574 138.927 27.8909 139.804 26.9581C140.704 26.0019 141.154 24.7309 141.154 23.1451C141.154 21.5593 140.704 20.2999 139.804 19.3671C138.927 18.4109 137.796 17.9328 136.411 17.9328C135.027 17.9328 133.884 18.4109 132.984 19.3671C132.084 20.2999 131.634 21.5593 131.634 23.1451C131.634 24.7309 132.084 26.0019 132.984 26.9581C133.884 27.8909 135.027 28.3574 136.411 28.3574Z" fill="white"/>
<path d="M161.498 32.5551L157.413 26.7832L153.189 32.5551H147.304L154.47 23.0751L147.547 13.735H153.605L157.551 19.2271L161.602 13.735H167.348L160.425 22.9352L167.625 32.5551H161.498Z" fill="white"/>
<path d="M103.764 32.3529H108.767V41.25H103.764V32.3529Z" fill="white"/>
<path d="M48.7362 31.7463H53.7387V40.6434H48.7362V31.7463Z" fill="white"/>
<path d="M103.764 0H108.767V8.89706H103.764V0Z" fill="white"/>
<path d="M48.7362 5.05515V0H103.764V5.05515H48.7362Z" fill="white"/>
<path d="M48.7362 41.25V36.1949H103.764V41.25H48.7362Z" fill="white"/>
</svg>
